<svg width="11" height="10" viewBox="0 0 11 10" fill="none" xmlns="http://www.w3.org/2000/svg">
<g clip-path="url(#clip0_117_5845)">
<path fill-rule="evenodd" clip-rule="evenodd" d="M7.07 8.275C7.55182 7.50045 7.86227 6.61682 7.96273 5.68182H9.06955C8.85136 6.82818 8.09273 7.78227 7.07 8.275ZM4.41455 4.31818C4.54091 3.40136 4.91455 2.55136 5.5 1.87318C6.08545 2.55136 6.45909 3.40136 6.58545 4.31818H4.41455ZM5.5 8.12682C4.91455 7.44864 4.54091 6.59864 4.41455 5.68182H6.58545C6.45909 6.59864 6.08545 7.44864 5.5 8.12682ZM3.03727 4.31818H1.93C2.14864 3.17136 2.90727 2.21773 3.93 1.725C3.44818 2.49955 3.13773 3.38318 3.03727 4.31818ZM1.93 5.68182H3.03727C3.13773 6.61682 3.44818 7.50045 3.93 8.275C2.90727 7.78227 2.14864 6.82818 1.93 5.68182ZM9.06955 4.31818H7.96273C7.86227 3.38318 7.55182 2.49955 7.07 1.725C8.09273 2.21773 8.85136 3.17136 9.06955 4.31818ZM5.5 0C2.74273 0 0.5 2.24273 0.5 5C0.5 7.75682 2.74273 10 5.5 10C8.25682 10 10.5 7.75682 10.5 5C10.5 2.24273 8.25682 0 5.5 0Z" fill="white"/>
</g>
<defs>
<clipPath id="clip0_117_5845">
<rect width="10" height="10" fill="white" transform="translate(0.5)"/>
</clipPath>
</defs>
</svg>
