<svg width="20" height="20" viewBox="0 0 20 20" fill="none" xmlns="http://www.w3.org/2000/svg">
<circle cx="10" cy="10" r="10" fill="#323645"/>
<g clip-path="url(#clip0_112_98)">
<path d="M10.6885 7.8987L11.9227 7.8987L11.9227 12.4315C11.9227 12.9116 11.6513 13.3282 11.2536 13.5365C11.4753 13.693 11.7458 13.785 12.0378 13.785C12.7899 13.785 13.3996 13.1753 13.3996 12.4232L13.3996 7.89871L14.6387 7.89871C14.8211 7.89871 14.9277 7.69299 14.8225 7.54397L12.8474 4.746C12.7578 4.61901 12.5695 4.61901 12.4798 4.746L10.5047 7.54397C10.3995 7.69301 10.5061 7.8987 10.6885 7.8987ZM7.52067 15.2427L9.49574 12.4447C9.60096 12.2957 9.49437 12.09 9.31195 12.09L8.07774 12.09L8.07774 7.55716C8.07774 7.07708 8.34916 6.66045 8.74689 6.45217C8.52515 6.29568 8.25463 6.20372 7.96262 6.20372C7.21051 6.20372 6.60083 6.8134 6.60083 7.56549L6.60082 12.09L5.36177 12.09C5.17935 12.09 5.07277 12.2957 5.17797 12.4447L7.15304 15.2427C7.24271 15.3697 7.43104 15.3697 7.52067 15.2427Z" fill="white"/>
</g>
<defs>
<clipPath id="clip0_112_98">
<rect width="11.6667" height="11.6667" fill="white" transform="translate(15.8333 4.16663) rotate(90)"/>
</clipPath>
</defs>
</svg>
