<svg width="40" height="40" viewBox="0 0 40 40" fill="none" xmlns="http://www.w3.org/2000/svg">
<path fill-rule="evenodd" clip-rule="evenodd" d="M20 38.5C30.2173 38.5 38.5 30.2173 38.5 20C38.5 9.78273 30.2173 1.5 20 1.5C9.78273 1.5 1.5 9.78273 1.5 20C1.5 30.2173 9.78273 38.5 20 38.5ZM20 40C31.0457 40 40 31.0457 40 20C40 8.9543 31.0457 0 20 0C8.9543 0 0 8.9543 0 20C0 31.0457 8.9543 40 20 40Z" fill="#FF5121"/>
<path fill-rule="evenodd" clip-rule="evenodd" d="M26.0209 27.435C26.4114 27.8256 27.0446 27.8256 27.4351 27.435C27.8256 27.0445 27.8256 26.4113 27.4351 26.0208L21.7782 20.3639L27.435 14.7071C27.8256 14.3166 27.8256 13.6834 27.435 13.2929C27.0445 12.9024 26.4113 12.9024 26.0208 13.2929L20.364 18.9497L14.7072 13.2929C14.3167 12.9024 13.6835 12.9024 13.293 13.2929C12.9025 13.6834 12.9025 14.3166 13.293 14.7071L18.9498 20.3639L13.2929 26.0208C12.9024 26.4114 12.9024 27.0445 13.2929 27.435C13.6834 27.8256 14.3166 27.8256 14.7071 27.435L20.364 21.7781L26.0209 27.435Z" fill="#FF5121"/>
</svg>
