<svg width="40" height="40" viewBox="0 0 40 40" fill="none" xmlns="http://www.w3.org/2000/svg">
<path fill-rule="evenodd" clip-rule="evenodd" d="M20 38.5C30.2173 38.5 38.5 30.2173 38.5 20C38.5 9.78273 30.2173 1.5 20 1.5C9.78273 1.5 1.5 9.78273 1.5 20C1.5 30.2173 9.78273 38.5 20 38.5ZM20 40C31.0457 40 40 31.0457 40 20C40 8.9543 31.0457 0 20 0C8.9543 0 0 8.9543 0 20C0 31.0457 8.9543 40 20 40Z" fill="#00E061"/>
<path fill-rule="evenodd" clip-rule="evenodd" d="M30.674 12.7759C30.3081 12.3546 29.6633 12.3275 29.2632 12.7166L16.0006 25.6161L11.0147 20.965C10.6117 20.5892 9.97745 20.6225 9.6161 21.0384C9.27237 21.4341 9.30371 22.0309 9.68699 22.3884L16.0006 28.2773L30.6168 14.1106C30.9873 13.7515 31.0124 13.1654 30.674 12.7759Z" fill="#00E061"/>
</svg>
